<svg id="Layer_1" enable-background="new 0 0 514.738 514.738" height="512" viewBox="0 0 514.738 514.738" width="512" xmlns="http://www.w3.org/2000/svg"><g><path d="m461.49 362.883c6.113-15.385 3.812-33.375-7.269-47.012l-6.855-8.422c-6.121-7.521-17.756 1.949-11.633 9.469l6.852 8.417c10.405 12.807 9.442 31.256-2.239 42.916l-65.066 64.942c-13.806 13.806-29.759 13.346-46.011 3.705l-51.462-30.645c-9.467-7.192-10.575-21.721-2.239-30.253l46.709 30.979c7.836 5.202 16.351-7.156 8.291-12.5l-69.394-46.024c-29.793-19.554-30.329-60.516-5.913-84.885 9.567-9.548 19.11-19.12 28.676-28.668 12.177-12.152 28.829-18.635 45.723-17.751 16.733.863 31.819 8.55 42.479 21.644l38.001 46.683c6.123 7.52 17.755-1.949 11.633-9.469l-23.063-28.332 9.381 4.458c6.174 2.935 12.966-3.741 9.993-9.993l-30.612-64.396 67.315-23.841c6.52-2.308 6.524-11.818.01-14.136l-67.279-23.932 30.706-64.354c2.979-6.239-3.734-12.962-9.979-10.008l-64.551 30.571-23.887-67.194c-2.286-6.437-11.812-6.498-14.13-.011l-23.984 67.162-64.505-30.658c-6.242-2.969-12.959 3.752-9.993 9.993l11.732 24.681-26.755-21.697c-13.655-11.051-31.675-13.343-47.084-7.237l-31.397-31.337c-9.237-9.22-24.268-9.221-33.503 0-19.438 19.401-38.876 38.802-58.314 58.203-9.067 9.053-9.088 24.429.001 33.502l30.616 30.557c-5.112 10.782-5.553 22.907-1.088 35.338 3.217 8.953 17.395 4.054 14.117-5.07-4.566-12.713-2.033-23.997 7.527-33.54 22.22-22.169 44.432-44.346 66.647-66.52 11.694-11.67 30.198-12.629 43.035-2.24l86.71 70.315c27.461 21.349 28.772 63.999 3.9 87.991-9.565 9.549-19.156 19.074-28.722 28.622-24.399 24.352-65.455 23.896-85.107-5.931l-46.093-69.23c-5.377-8.07-17.86.24-12.486 8.312l31.024 46.597c-8.533 8.285-23.101 7.235-30.336-2.249l-18.361-30.718c-4.972-8.326-17.85-.627-12.875 7.695l18.562 31.053c10.473 17.482 36.687 19.04 51.404 6.825 3.288 4.938 6.437 10.098 10.087 14.783 1.77 13.7 6.347 27.592 9.462 41.05l-81.601 10.229c-6.862.859-8.903 10.147-3.036 13.806l69.739 43.485-50.444 64.807c-4.246 5.457.868 13.464 7.604 11.915l80.143-18.476 10.247 81.44c.862 6.844 10.183 8.817 13.799 3.043l43.579-69.623 64.958 50.366c5.461 4.234 13.461-.886 11.902-7.618l-8.479-36.638c16.01 9.575 34.165 15.984 52.103 7.492l30.635 30.577c4.618 4.609 10.685 6.913 16.751 6.913s12.133-2.304 16.751-6.913l58.315-58.203c9.068-9.052 9.087-24.429-.001-33.502zm-358.395-336.517 28.753 28.698c-3.474 2.965-6.646 6.369-9.848 9.622-9.6 9.519-25.17 9.503-34.746-.056-11.582-12.067-8.369-27.87 3.531-38.264 3.393-3.387 8.916-3.389 12.31 0zm-70.624 70.469c-3.394-4.089-3.395-8.178-.001-12.268l32.833-32.769c1.006 8.855 4.95 17.053 11.356 23.448 6.562 6.549 14.871 10.313 23.444 11.295-12.959 12.934-26.423 25.567-38.951 38.92zm273.63 81.078c-1.083-21-10.748-39.918-27.214-53.27l-32.933-26.707-16.158-33.99 52.95 25.166c4.686 1.627 8.114.21 10.283-4.251l19.694-55.151 19.615 55.178c2.163 4.464 5.588 5.886 10.276 4.267l52.987-25.095-25.206 52.827c-1.636 4.694-.218 8.126 4.255 10.296l55.209 19.638-55.238 19.563c-4.475 2.163-5.899 5.593-4.27 10.289l25.129 52.863-21.52-10.228c-12.173-10.307-27.225-16.296-43.529-17.137-9.725-.502-19.379.935-28.447 4.11 3.179-9.047 4.618-18.676 4.117-28.368zm1.322 289.407-54.857-42.535c-4.227-2.592-7.878-1.943-10.953 1.947l-36.808 58.807-8.655-68.788c-1.155-4.827-4.197-6.951-9.126-6.372l-67.665 15.599 42.591-54.719c2.603-4.235 1.953-7.892-1.95-10.971l-58.872-36.708 68.886-8.635c4.833-1.154 6.957-4.198 6.374-9.133l-6.666-28.804c17.204 9.989 38.223 11.135 56.85 4.563-10.49 29.646.018 62.126 26.343 79.404l10.025 6.649c-12.178 14.647-10.571 40.96 6.859 51.319l30.655 18.254zm174.843-62.51c5.367 5.357.544 11.717-3.542 15.804-9.594 9.578-25.207 9.578-34.803 0-9.406-9.388-9.426-25.331.001-34.74 3.225-3.182 6.631-6.326 9.58-9.771zm-58.313 70.472c-3.394 3.387-8.915 3.388-12.311 0l-28.67-28.616c13.371-12.515 26.036-25.945 38.999-38.883 1.006 8.856 4.95 17.053 11.356 23.448 6.561 6.549 14.871 10.314 23.443 11.296z"/><path d="m80.401 272.941c0-4.143-3.357-7.5-7.5-7.5h-8.426c-9.931.344-9.923 14.66 0 15h8.426c4.143 0 7.5-3.358 7.5-7.5z"/><path d="m41.446 256.288c4.143 0 7.5-3.357 7.5-7.5v-8.425c-.344-9.931-14.66-9.923-15 0v8.425c0 4.143 3.357 7.5 7.5 7.5z"/><path d="m17.294 264.318h-8.425c-9.931.344-9.923 14.66 0 15h8.425c9.93-.344 9.923-14.66 0-15z"/><path d="m32.823 304.396c.344 9.931 14.66 9.923 15 0v-8.426c-.344-9.931-14.66-9.923-15 0z"/><path d="m77.558 398.49c-2.93-2.928-7.678-2.928-10.607 0-2.929 2.93-2.929 7.678 0 10.607l4.567 4.567c3.536 2.928 7.072 2.928 10.607 0 2.929-2.93 2.929-7.678 0-10.607z"/><path d="m72.127 368.345-4.567 4.567c-2.929 2.93-2.929 7.678 0 10.607 3.536 2.928 7.072 2.928 10.607 0l4.567-4.567c2.929-2.93 2.929-7.678 0-10.607-2.93-2.928-7.678-2.928-10.607 0z"/><path d="m48.023 367.737c-2.93-2.928-7.678-2.928-10.607 0-2.929 2.93-2.929 7.678 0 10.607l4.567 4.567c3.536 2.928 7.072 2.928 10.607 0 2.929-2.93 2.929-7.678 0-10.607z"/><path d="m41.374 397.88-4.567 4.567c-2.929 2.93-2.929 7.678 0 10.607 3.536 2.928 7.072 2.928 10.607 0l4.567-4.567c2.929-2.93 2.929-7.678 0-10.607-2.93-2.927-7.678-2.927-10.607 0z"/><path d="m470.957 109.803c3.536 2.928 7.072 2.928 10.607 0 2.929-2.93 2.929-7.678 0-10.607l-4.567-4.567c-2.93-2.928-7.678-2.928-10.607 0-2.929 2.93-2.929 7.678 0 10.607z"/><path d="m472.302 81.855c1.919 0 3.839-.732 5.304-2.196l4.567-4.567c2.929-2.93 2.929-7.678 0-10.607-2.93-2.928-7.678-2.928-10.607 0l-4.567 4.567c-2.929 2.93-2.929 7.678 0 10.607 1.465 1.463 3.384 2.196 5.303 2.196z"/><path d="m441.422 79.05c3.536 2.928 7.072 2.928 10.607 0 2.929-2.93 2.929-7.678 0-10.607l-4.567-4.567c-2.93-2.928-7.678-2.928-10.607 0-2.929 2.93-2.929 7.678 0 10.607z"/><path d="m441.549 111.39c1.92 0 3.84-.732 5.304-2.197l4.566-4.567c2.929-2.93 2.929-7.678-.001-10.606-2.931-2.929-7.68-2.929-10.606.001l-4.566 4.567c-2.929 2.93-2.929 7.678.001 10.606 1.465 1.464 3.384 2.196 5.302 2.196z"/><path d="m450.262 212.191h-8.426c-9.931.344-9.923 14.66 0 15h8.426c9.931-.344 9.924-14.66 0-15z"/><path d="m473.292 236.343c-4.143 0-7.5 3.357-7.5 7.5v8.425c.344 9.931 14.66 9.923 15 0v-8.425c0-4.142-3.358-7.5-7.5-7.5z"/><path d="m505.869 213.314h-8.425c-9.931.344-9.923 14.66 0 15h8.425c9.931-.344 9.923-14.66 0-15z"/><path d="m481.915 188.236c-.344-9.931-14.66-9.923-15 0v8.426c.344 9.931 14.66 9.923 15 0z"/></g></svg>