<svg height="512" viewBox="0 0 34 59" width="512" xmlns="http://www.w3.org/2000/svg"><g id="Page-1" fill="none" fill-rule="evenodd"><g id="018---Gloves" fill="rgb(0,0,0)" fill-rule="nonzero" transform="translate(0 -1)"><path id="Shape" d="m27.68 21-5.056-13c1.250284-1.08903893 1.6990711-2.83653951 1.1282634-4.39326501-.5708078-1.5567255-2.0428604-2.59990778-3.7007812-2.62258923s-3.15796.97984065-3.7711403 2.52036842c-.6131802 1.54052776-.212366 3.29965145 1.0076581 4.42248582l-2.948 7.073h2.16l2.549-6.127c.3106098.08108401.6299978.12373625.951.127.2821286-.00099243.5633604-.03183073.839-.092l4.701 12.092zm-9.68-16c0-1.1045695.8954305-2 2-2s2 .8954305 2 2-.8954305 2-2 2-2-.8954305-2-2z"/><path id="Shape" d="m33.363 50.055c-.7644936-.7945241-1.6447873-1.4688202-2.611-2 .4644854-.2839019.8891999-.6282469 1.263-1.024.2931289-.3195632.5637763-.6590419.81-1.016.3257928 1.3230806.5061944 2.6777697.538 4.04zm-6.863-27.055c1.6568542 0 3 1.3431458 3 3v6.46c-.8533797-.3875449-1.7472044-.6790022-2.665-.869-.247-.051-.495-.1-.744-.139-.3575492-.0706036-.7251962.058904-.9595552.3380135-.234359.2791096-.2983137.6636175-.1669211 1.0035621.1313926.3399445.4373234.5814873.7984763.6304244.221.037.442.078.658.124 1.6700091.2609413 3.2098152 1.0580463 4.387 2.271 1.406 1.6 1.706 4.183 1.517 6.064-.1672334 1.420492-.7903699 2.7485166-1.776 3.785-.6819695.8561622-1.7836988 1.2616973-2.858 1.052-.8564493-.331802-1.4395909-1.1339639-1.491-2.051.2054186-1.5345511 1.0503754-2.9106029 2.326-3.788.4124468-.3550749.4652127-.9747904.1187339-1.3944843s-.964972-.4852506-1.3917339-.1475157c-.928.766-3.082 2.822-3.053 5.356.025781.9304926.3599468 1.8260568.95 2.546-.6795666.1804933-1.3324835.4494601-1.942.8-.0564758-.4519779-.1756201-.8938889-.354-1.313-.3186773-.760405-.8538644-1.4103496-1.539-1.869 1.1270574-.9462824 1.8190869-2.3115599 1.916-3.78.2897476-2.4041031.09595-4.8418729-.57-7.17-.3727969-1.3411019-.9319134-2.6232662-1.661-3.809v-7.1zm-24.173 11.6c1.1188068-2.7058757 3.2325611-4.8797571 5.906-6.074.50423595-.2253322.73033212-.816764.50499995-1.321-.22533217-.5042359-.81676398-.7303321-1.32099995-.505-.48691768.220668-.96010718.4704533-1.417.748v-7.448c0-1.6568542 1.34314575-3 3-3h7c1.6568542 0 3 1.3431458 3 3v7.743c-1.3929324-1.1974638-3.0804172-2.0011595-4.888-2.328-.3546221-.0761287-.7226654.0457278-.9617884.3184412-.239123.2727135-.311834.6535257-.1900121.9951569.121822.3416311.4190767.5905175.7768005.6504019 2.2284038.3705208 4.1986748 1.6600868 5.43 3.554.69909 1.085699 1.22851 2.2716673 1.57 3.517.5922505 2.0613679.7666644 4.2202928.513 6.35-.172 1.212-.642 2.661-1.8 2.684-.5979169-.0349008-1.1534101-.3202718-1.53-.786-.393308-.5073834-.6766551-1.0911059-.832-1.714v-.012c-.3797818-1.548007-.4847094-3.1506905-.31-4.735v-.015c0-.021 0-.04 0-.061.126-1.261.3-2.326.428-3 .1016204-.5431721-.2563279-1.0658796-.7995-1.1675s-1.0658796.2563279-1.1675.7995c-.061.329-.134.755-.208 1.242-.783217-.5096157-1.6319586-.9106066-2.523-1.192-.3427963-.1011062-.7134927-.0116524-.9724514.2346648-.2589586.2463173-.3668376.6120766-.283.9595.0838377.3474234.3466551.623729.6894514.7248352 1.0498642.3206519 2.0119704.878345 2.812 1.63-.0577141.8446071-.0600525 1.6920873-.007 2.537-2.9516844-2.0375907-6.74336932-2.4152862-10.039-1-1.41504254.5951646-2.69251986 1.4750684-3.753 2.585.014-.13.022-.256.039-.387.21024736-1.8910402.65811345-3.7480213 1.333-5.527zm5.188 19.468c-3.67322531-1.600184-6.18746624-5.0691855-6.565-9.058-.00001079-.0441529-.0030177-.0882542-.009-.132-.005-.037-.006-.077-.01-.115 0-1.482 1.743-3.807 4.549-4.986 1.966-.826 5.832-1.621 9.8 2.136.2339176.7556743.6096105 1.4598863 1.107 2.075.3219431.3800007.7098268.6987767 1.145.941-.568592.4150462-1.0429725.9456571-1.392 1.557-.1836345.3065339-.189786.6877507-.0161371 1.0000498s.5007166.5082348.858.514.6905026-.1795159.8741371-.4860498c.2801637-.5854904.7937238-1.0260995 1.415-1.214.7943033-.054956 1.520342.4487412 1.747 1.212.579 1.347.246 3.641-2.6 5.674-3.2527368 2.1154811-7.3536612 2.4457215-10.903.878zm24.548 1.595c-1.126 1.516-3.539 3.336-8.633 3.4-3.986.037-6.476-.91-7.1-2.639 1.1604049-.363623 2.2569377-.9061536 3.25-1.608 1.5133718-.9943174 2.6774816-2.4374778 3.329-4.127 1.418243-1.3902615 3.4501575-1.9564647 5.383-1.5 1.9933127.6155086 3.6879943 1.9475277 4.757 3.739.0126221.9996527-.3377 1.9699665-.986 2.731z"/><path id="Shape" d="m12.277 51.047c-1.0895739.0003816-2.167814-.2211187-3.169-.651-2.32999458-1.01743-3.92592997-3.2172949-4.17-5.748-.04158114-.3636834-.27854933-.6755842-.61777826-.8131282-.33922893-.1375439-.72650018-.0787477-1.00961969.1532824-.2831195.2320301-.41683674.600209-.34860205.9598458.33024871 3.2176665 2.37780486 6.0038738 5.35 7.28 1.2523471.5391611 2.6015236.8171629 3.965.817.5522847 0 1-.4477153 1-1s-.4477153-1-1-1z"/></g></g></svg>